<svg viewBox="0 0 187 97" fill="none" xmlns="http://www.w3.org/2000/svg"><path d="M186.6 0h-186.6l80.5 90.5c7.1 7.9 18.6 7.9 25.7 0l80.4-90.5Z" fill="#81B3D3"/><path d="m43.2.7 49.6 58.4 49.3-58-98.9-.4Z" fill="#23A9E1"/><path d="M122 17.3c-5.1 0-10.1.1-15.2.1 6-6.9 8.7-6.2 15.2-.1Zm-41.2 5.4h26.7c-2-1.2-6.7-7.1-9.3-4.9-.2.2-7.5-8.9-12.3-4.5-4.2 3.8-6.1-.5-10.9 2.5-5.3 3.6 3.2 5.7 5.8 6.9Z" fill="#fff"/><path d="M93.1 0h-50.9v22.5l50.6 61.5.3-.4 50.7-60.4v-23.2h-50.7Zm-38.2 1.8h5.5v17.2l-5.5-6.5v-10.7Zm-.8 9.8-5-5.9v-3.9h5v9.8Zm19.3-2.7-5.7-7.1h5.7v7.1Zm-6.6 3.8-5.6-10.9h5.6v10.9Zm-5.7-9.3 5.5 10.7c-2.8 2.1-4.7 4-5.5 4.9v-15.6Zm6.5-.5 5.6 6.9a42.13 42.13 0 0 0-5.6 3.7v-10.6Zm6.6-.2 4.8 4.2c-1.7.7-3.3 1.5-4.8 2.3v-6.5Zm5.6 3.9-5.4-4.8h6v4.6c-.3 0-.4.1-.6.2Zm19.1-4.8h5l-5 2.4v-2.4Zm-5.8 0h4.4l-4.4 2.1v-2.1Zm-.9 2-4.2-2h4.2v2Zm-5.5.5-5.1-2.5h5.1v2.5Zm-5.6-1.9 4.7 2.3c-1.6.4-3.2.8-4.7 1.3v-3.6Zm6.4 0 3.4 1.6c-1.2.1-2.3.2-3.5.4v-2h.1Zm10.4.1v1.9c-1.1-.2-2.2-.3-3.4-.4l3.4-1.5Zm6.5-.1v3.7c-1.5-.5-3.1-1-4.8-1.4l4.8-2.3Zm.7-.6h5.9l-5.4 4.8c-.2-.1-.3-.1-.5-.2v-4.6Zm13.6 0h5.6l-5.6 10.9v-10.9Zm-6.6 0h5.7l-5.7 7v-7Zm-.8.9v6.5c-1.5-.8-3.1-1.6-4.8-2.3l4.8-4.2Zm6.6.2v10.5c-.7-.5-1.5-1-2.3-1.6-1-.7-2.2-1.4-3.4-2.1l5.7-6.8Zm6.4.5v15.2c-1.1-1-2.9-2.7-5.5-4.6l5.5-10.6Zm.8 16v-17.6h5.5v11.4l-5.5 6.2c.1.1 0 .1 0 0Zm6.3-17.6h5v4.7l-5 5.8v-10.5Zm-83 0v2.9l-2.5-2.9h2.5Zm12.8 18.2.1.1s3.6-3.9 9.2-7.6c5.3-3.5 13.3-7.6 22.3-7.5 8.9 0 17.1 4.2 22.3 7.7 5.6 3.7 9.3 7.5 9.4 7.6l-3.9 4.5c-6.9.9-11.9 6.1-18.6 5-3.4-.6-3.5-2.5-4.5-4.5-.7-1.5-1.9-1.3-3.5-1.9-1.4-.6-2.3-1.7-5.2-1.1-2.5.6-2.8 4.5-6 4.3-1.7-.1-1.8-2.5-4.2-5.5-6.3-7.6-12.2-6.5-16.2.5l30.3 35.9-31.5-37.5Zm75.9-14.5v-3.7h3.2l-3.2 3.7Z" fill="#491213"/><path d="m88.7 70.9 4.1-6.5 4 6.5-4 6.5-4.1-6.5Z" fill="#23A9E1"/><path d="M65.5 32.3c.5.6.9 1.3.8 2.1-.1.6-.9 1.6-.3 1.8l2.2-2.8c-.6-.2-5.4-5.8-5.4-6.5-1.1.6-2.1 1.2-3.2 1.7.2.7 1.3 0 1.9 0 .8.1 1.4.6 2 1.2-1.7 1.4-5.9 5-6.4 5.1-.2 0-1.1-.6-1.1-.1 0 .3.9 1 1 1.2.7.9 1.5 1.8 2.2 2.7.6-.3-.1-.7.2-1.2.3-.4 4.9-4.3 6.1-5.2Zm-5.3-7c.4-.1.6.4 1-.1-.8-1-1.6-1.9-2.4-2.9-.4-.4-.8-.9-.7 0 .1.6-6.1 5.7-6.5 5.8-.5.2-.8-.4-1.1.1.7.9 1.5 1.7 2.2 2.6.2.3.5.6.7.9.3.3.2-.7.2-.6-.1-.5.5-.9.9-1.2 1.5-1.3 5.3-4.6 5.7-4.6Zm-8.8-.9c-1.8.5-3.7-.2-4.2-2s.6-3.8 2.1-4.8c1.4-1 3.6-1 4.4.8.3.8.2 1.7-.1 2.5-.2.5-.6 1 .1 1.3.9-1.1 1.7-2.2 2.6-3.3-1.1-.6-1.5-1.7-2.3-2.6-.9-1.1-2.1-2.1-3.5-2.3-2.9-.4-5.6 2.6-5.8 5.2-.1 1.5.4 2.8 1.2 4 .8 1 1.9 1.6 2.4 2.8.3.1 2.7-1 3.3-1.3-.1-.1-.1-.2-.2-.3 0 0-.7.2 0 0Zm39.3 36.4c-1.2-.8-4-4.7-4.6-5.3-.1-.1-.2-.3-.3-.4 0 0-.3.2-.2.2-.2.1.1.6-.1.9-.8 1.2-5.8 5-6 5.2-.6.4-1.2-.2-1.5.3.7.9 2.8 3.5 3 3.6.5.1.1-.8.2-1 .1-.4 2.6-2.4 3.5-3.2.3-.3.7.4.9.7.3.5.5 1 .3 1.6-.1.4-.7.9-.3 1.2.6-.7 2.4-2.8 2.6-3 .3-.3-.6 0-.5-.1-.4.2-.7.2-1.1 0-.1-.1-1.1-1.1-1-1.2.4-.4 1-1 1.5-1.1.9-.2 1.6 1.5 1.7 2.1.1.6.1 1.2-.1 1.8-.1.4-.5.7 0 .9.7-1 1.4-1.9 2.1-2.9.2-.2 0-.3-.1-.3.2 0-.1-.1 0 0Zm-10.2-4.2c2.2-1.9 2.5-5.1.8-7.3-1.9-2.5-5.4-3.1-7.8-1.1-2.2 1.9-2.5 5-.8 7.3 2 2.7 5.2 3 7.8 1.1 1.2-.9-.1.1 0 0Zm-.5-4.7a7.4 7.4 0 0 1-3.7 3.7c-1.8.7-3.1-.8-2.4-2.6.7-1.5 2.2-3.1 3.7-3.7 1.9-.7 3.1.9 2.4 2.6.1-.2-.4.9 0 0Zm-5.9-9.9c.5.1.9.5 1.3 0-.7-.9-1.5-1.8-2.2-2.6-.6.3 0 .5-.2 1-.2.4-2.6.8-3.2.9.2-.6.9-2.6 1.2-2.8.5-.4.9.4 1.3-.1l-2.7-3.3c-.3-.4-.6-1-1-.7 0 0 0 1.5-.1 1.7-.1.2-.9 3.6-1.9 4.5-.5.4-2.2 1.9-2.7 2.1-.5.2-.8-.6-1.2 0 .8 1 1.7 2 2.5 3 .1.1.6.9.8.9.5.1.1-.9.1-1.1.2-.4 2.5-2.7 3.5-2.9 1.2-.2 3-.7 4.5-.6.3.1-.4 0 0 0Z" fill="#fff"/><path d="M67.8 22.9c-4-.2-2.4-4 .4-4.8 2.6-.8 8.1 1.7 9.8 3.4-2.8.9-6.4.7-9.4.9-.2-3.2-1-2.1-.8.5Zm9.5 12.5c-8.6-.1-2.8-13.3.1-12.5 3.4 1.1 3 12.6-.1 12.5Zm6.1-4.3c-.8 2.5-2.4 3-2.2-.1.2-3.5 2.5-2.7 4.9-4 2-1.1 3.1-5.2 6.6-2.8 1.6 1.1 3.4.2 3.9 1.8 0-.1-4.5 10.3-2 10.3-5 0-2.8-5.9-.9-9.9-1.8.9-4.8 6.7-2.4 7.6-1.3 1.7-5.2 3.9-7.2 2.3-1.5-1.1-.7-3.2-.7-5.2Zm4.1 9.6c-3.5 1-8.1-1.2-2.5-2.3 3.5-.7 7.2.7 2.5 2.3.1 0-.1 0 0 0Zm4.4-.1c-.7-1.7.6-3.6 2.7-2.2 1.8 1.2-.9 3.1-2.7 2.2Zm-3 4.6c-2.4-.7-10.5-.6-5.2-2.8 1.7-.6 10.2.2 5.2 2.8Zm10.5 3.3c-1.4-1.2-2.9-1.3-4.2 0-1.8-3.3-8.3-2.2-11.4-2.7 1.6 4.1 14.8 4.9 15.6 2.7Zm-1.9 2.5c-3.2-.1-6.7-.6-9.6.1 1.9.5 6.4 1.8 2.2 2.9 1.5 2.2 4 2 5.6.1-.7-.3-1-.7-1.6-1.1 1.6-.3 3.2-1.2 3.4-2Zm3.6-3.9c-5.3-3.1-4-5.4.4-7.6 2.3-1.1 7.3-5.2 9.4-3.9-3.3 3.9-6.6 7.7-9.8 11.5Z" fill="#DC6243"/><path d="M97.3 39.8c-4.5-4.6 6.7-4.2 8.5-5.8 1.3.4 10.8-8.3 13.1-7.7-1.7 1.9-5.2 8.1-7.8 8.1-2 0-4-.3-5.5 1.1-2.2 2.1-5.9 3.1-8.3 4.3Z" fill="#F49774"/><path d="M98.8 34.2c-2.5 1.3-4.8-3.9-.5-3.4 2.8.3 5.7-.2 8.3.2-2 2.3-4.7 3.6-7.8 3.2Z" fill="#F4B1A4"/><path d="M111.4 52.5c.2.6.3 1.3.2 2-.1.9-1 2.9-2.2 2.3-1.2-.6-2.2-1.7-3.2-2.6.8-.9 1.5-1.7 2.9-1.3.4.1.7 0 .3-.3-.4-.2-3.1-2-3.3-1.8-.3.3.5.9.2 1.5-.2.4-.6.8-.9 1.2-.7-.6-1.9-1.3-1.1-2.3.5-.7 1.3-1.2 2.1-1.3.6-.1 1.8.4 2-.2-1.1-.5-2.2-1-3.3-1.6.2.8-3.3 4.5-4.1 5.5-.1.1-.7.6-.7.8 0 .4.6.1.7.1.5-.2 6.8 5.1 7 5.5.1.3-.2.6 0 .7 0 0 .2.2.3.2.4-.5 4.5-6 5.4-6.2-.8-1.2-1.6-2.4-2.4-3.7-.6.3 0 1 .1 1.5Zm-6.2 6.7c-2.1-1.3-5.6 1.3-6.1 1.5-1 .5-1.8-.5-1.3-1.5.5-.8 1.4-1.2 2.3-1.3.3 0 1.3.2 1.5 0 .1-.2.2-.2 0-.3-.9-.6-1.7-1.2-2.6-1.7-.2 1.1-1.4 1.7-2.1 2.4-.8.9-1.5 1.9-1.5 3.2 0 1.1.7 2.1 1.7 2.7 1.1.6 2.3.1 3.3-.5.6-.4 1.3-.9 1.9-1.2 1-.5 2.3-.1 2 1.3-.3 1.1-1.4 2.1-2.4 2.3-.6.2-1.3.1-1.9-.1-.4-.1-1-.7-1.2-.1 1.2.8 2.3 1.7 3.5 2.5.1-.8.5-1.1 1.1-1.6.7-.6 1.4-1.3 2-2.1 1.2-1.7 1.6-4.1-.2-5.5Zm0 0c-.6-.5 1 .6 0 0Zm36.7-39.6c-.7.7-8.4-2.3-9-2.8-.3-.1-.3-1.3-.7-.8l-1.2 1.5c-.4.5-.8 1-1.3 1.5-.3.3-.5.5 0 .7.8-.4 5.4 7.3 5 8.5-.7.4-6.9-5.1-7.1-5.4-.1-.1.3-1-.2-.9-.2 0-.7.9-.9 1.1-.3.4-.6.7-.9 1.1.3.5.5 0 1 0 .4.1 1.8 1.3 2.2 1.7-.7 0-2.7.1-2.9.1-.9.1-.4-.7-1-.9-.8.9-1.5 1.8-2.3 2.8l-1.3 1.6c-.1.1 0 0 0 .1.3.3.1.2.6 0s6.6 4.9 6.8 5.2c.4.4-.2 1 .4 1.2.6-.7 1.2-1.5 1.8-2.2.1-.1.1-.1 0-.2-.4-.4-.5.2-1 .2-.5-.1-4.4-3.4-5.9-4.6 1.8-.1 7.3-.3 8.2-.3.3 0 1.1.9 1.1 1.2-.1.4-.5.6.1.8.5-.6 1-1.1 1.5-1.7l.2-.3c.1-.1.1-.1.2-.3l.2-.2c.4-.5 1.8-2 1.6-2.1-.5-.4-.7.5-1.3-.1-.3-.2-1.2-1.8-1.4-2.2-.3-.4.6-.9 1-1.1.8-.5 3.2-1.2 3.5.3 0 .3-.3.5-.1.7 0 0 .2.2.3.2.2-.2 2.4-2.8 3.3-4-.3-.2-.4-.3-.5-.4Zm-7.4 2.2c.1 0 .2-.1 0 0a7 7 0 0 0-1 .8c-.5-.9-1-1.8-1.6-2.7 1.2.5 2.4 1 3.5 1.5-.2.1-.5.2-.9.4Zm-9.7 11.2c-2.4-2-5.6-1.4-7.6.8-1.9 2.3-1.7 5.7.6 7.6 2.3 1.9 5.7 1.4 7.6-.8 1.9-2.3 1.8-5.7-.6-7.6Zm-.3 6.6s0 .1 0 0c-1.3 1.3-3.4.1-4.5-.7-1.1-.8-3.1-2.6-1.9-4.1 1.1-1.3 3.1-.2 4.2.5 1.2.8 3.4 2.6 2.3 4.2l-.1.1Z" fill="#fff"/><path d="M124.8 33c-.3-.2 1.2 1 0 0Zm-.3 6.7c0-.1 0-.1 0 0l.1-.1c-.1 0-.1.1-.1.1Zm-6.3 2.4c.1.1.3.3 0 0-2.9-2.2-6.3-1.6-8.5 1.1l-3 3.6c.4.5.8-.1 1.3.2.4.3 6.2 5.1 6.3 5.4.2.5-.3.5.1.9.2.1 4.5-5.2 4.9-6.2.9-1.8.3-3.7-1.1-5Zm-1.3 6.8c-.2.3 0 .1-.7.7-.3.3-6.4-4.7-6.2-4.9.8-.9 2.6-1.6 3.6-1.3 2.2.5 5.2 3.2 3.3 5.5Z" fill="#fff"/></svg>