<svg viewBox="0 0 39 37" fill="none" xmlns="http://www.w3.org/2000/svg"><path d="M15.4 33.22h8.35v-12.16h-8.35v12.16Zm6.84-1.48h-5.32v-9.2h5.27v9.2h.05Z" fill="#81B3D2"/><path d="m37.9 20.04 1.1-1.07-5.17-5.03v-13.74h-7.2v6.72l-7.16-6.92-19.47 19.03 1.1 1.06 4.07-3.96v19.23h-2.04v1.47h33.36v-1.47h-2.66v-19.28l4.07 3.96Zm-9.76-18.31h4.13v10.73l-4.13-4.02v-6.71Zm4.18 33.57h-25.59v-20.7l12.74-12.46 12.8 12.46v20.7h.05Z" fill="#81B3D2"/><path d="M15.56 13.84a4.01 4.01 0 0 0 4.02 3.96 4.03 4.03 0 0 0 4.07-3.96 3.98 3.98 0 0 0-4.07-3.92 3.94 3.94 0 0 0-4.02 3.92Zm4.02-2.55a2.59 2.59 0 0 1 2.6 2.55 2.58 2.58 0 0 1-2.6 2.54 2.59 2.59 0 0 1-2.61-2.54c0-1.38 1.2-2.55 2.6-2.55Zm-9.19 9.77h-1.57v1.99h1.57v-1.99Zm3.08 0h-1.57v1.99h1.57v-1.99Zm-3.08 3.05h-1.57v1.99h1.57v-1.99Zm3.08 0h-1.57v1.99h1.57v-1.99Zm13.57-3.05h-1.56v1.99h1.56v-1.99Zm3.14 0h-1.57v1.99h1.57v-1.99Zm-3.14 3.05h-1.56v1.99h1.56v-1.99Zm3.14 0h-1.57v1.99h1.57v-1.99Z" fill="#81B3D2"/></svg>