<svg viewBox="0 0 32 38" fill="none" xmlns="http://www.w3.org/2000/svg"><path d="M30.58 11.2h-12.4c6.91-3.44 7.47-5.62 7.22-6.83-.56-1.98-2.85-3.5-4.98-2.69-2.8 1.07-3.56 5.22-4.32 8.2-.96-3.03-1.88-6.88-4.06-8.85a3.7 3.7 0 0 0-2.9-1.02c-2.03.2-4.92 2.69-3.7 5.47 1.11 2.69 4.82 4.4 7.3 5.78h-11.32c-.81 0-1.42.65-1.42 1.41v5.68c0 .8.66 1.42 1.42 1.42h.15v18.23h28.96v-18.23h.05c.81 0 1.42-.66 1.42-1.42v-5.68c0-.8-.66-1.46-1.42-1.46Zm-9.35-8.25c1.07-.15 2.5.66 2.64 1.62.2 1.37-1.67 2.63-2.54 3.2-1.27.85-2.49 1.3-3.65 2.02.4-1.88 1.27-6.54 3.55-6.84Zm-11.48 4.96c-1.12-.76-3.25-2.23-3.2-3.9.05-1.82 2.9-3.29 4.42-1.92 1.93 1.67 2.85 5.57 3.56 8.3-1.63-.8-3.15-1.41-4.78-2.48Zm3 28.57h-9.7v-16.71h9.7v16.71Zm0-18.23h-11.23v-5.52h11.23v5.52Zm5.08 18.23h-3.6v-23.75h3.6v23.75Zm11.17 0h-9.65v-16.71h9.7v16.71h-.05Zm1.48-18.23h-11.13v-5.52h11.13v5.52Z" fill="#81B3D2"/></svg>