<svg viewBox="0 0 40 35" fill="none" xmlns="http://www.w3.org/2000/svg"><path d="M37.74 23.3h-35.48a2.23 2.23 0 0 0-2.26 2.18v1.77c0 1.17 1 2.13 2.26 2.13h.52v.5a5.12 5.12 0 0 0 5.2 5.02h24.04c2.89 0 5.2-2.28 5.2-5.01v-.51h.52c1.21 0 2.26-.96 2.26-2.18v-1.77c0-1.12-1-2.13-2.26-2.13Zm-2.04 6.59a3.57 3.57 0 0 1-3.63 3.49h-24.14c-2 0-3.63-1.57-3.63-3.5v-.5h31.4v.5Zm2.73-2.69c0 .36-.32.66-.69.66h-35.48a.68.68 0 0 1-.69-.66v-1.77c0-.3.32-.61.69-.61h35.54c.36 0 .68.3.68.66v1.72h-.05Zm-29.93-8 2.84 2.02 2.89-2.02 2.88 2.02 2.89-2.02 2.83 2.02 2.9-2.02 2.88 2.02 2.89-2.02 2.88 2.02 3.31-2.38-.9-1.21-2.4 1.67-2.9-2.03-2.88 2.03-2.89-2.03-2.89 2.03-2.83-2.03-2.89 2.03-2.88-2.03-2.9 2.03-2.83-2.03-2.88 2.03-2.42-1.67-.94 1.21 3.36 2.38 2.88-2.02Zm28.72-3.45c0-.3.05-1.31 0-1.52-.37-7.9-7.93-14.23-17.22-14.23-9.3 0-16.9 6.33-17.27 14.23v1.52h34.49Zm-17.22-14.23c8.4 0 15.33 5.67 15.64 12.71h-31.34c.37-7.04 7.3-12.71 15.7-12.71Z" fill="#81B3D2"/><path d="M20 8.61c.58 0 1.05-.45 1.05-1.01s-.47-1.02-1.05-1.02c-.58 0-1.05.46-1.05 1.02s.47 1.01 1.05 1.01Zm-4.2-2.48c.58 0 1.05-.45 1.05-1.01s-.47-1.02-1.05-1.02c-.58 0-1.05.46-1.05 1.02s.47 1 1.05 1Zm8.4 0c.58 0 1.05-.45 1.05-1.01s-.47-1.02-1.05-1.02c-.58 0-1.05.46-1.05 1.02s.47 1 1.05 1Z" fill="#81B3D2"/></svg>